<?xml version="1.0" standalone="no"?><!DOCTYPE svg PUBLIC "-//W3C//DTD SVG 1.1//EN" "http://www.w3.org/Graphics/SVG/1.1/DTD/svg11.dtd"><svg t="1587779915344" class="icon" viewBox="0 0 1024 1024" version="1.1" xmlns="http://www.w3.org/2000/svg" p-id="1423" xmlns:xlink="http://www.w3.org/1999/xlink" width="200" height="200"><defs><style type="text/css"></style></defs><path d="M170.666667 320m234.666666 0l234.666667 0q234.666667 0 234.666667 234.666667l0 0q0 234.666667-234.666667 234.666666l-234.666667 0q-234.666667 0-234.666666-234.666666l0 0q0-234.666667 234.666666-234.666667Z" fill="#FFC500" opacity=".3" p-id="1424"></path><path d="M640 234.666667H384c-153.173333 0-277.333333 124.16-277.333333 277.333333s124.16 277.333333 277.333333 277.333333h256c153.173333 0 277.333333-124.16 277.333333-277.333333s-124.16-277.333333-277.333333-277.333333z m-256 42.666666h256c129.6 0 234.666667 105.066667 234.666667 234.666667s-105.066667 234.666667-234.666667 234.666667H384c-129.6 0-234.666667-105.066667-234.666667-234.666667s105.066667-234.666667 234.666667-234.666667z" fill="#3654FD" p-id="1425"></path><path d="M512 832.725333v-129.450666a8.533333 8.533333 0 0 0-14.570667-6.037334l-64.725333 64.725334a8.533333 8.533333 0 0 0 0 12.074666l64.725333 64.725334a8.533333 8.533333 0 0 0 14.570667-6.037334zM512 320.725333V191.274667a8.533333 8.533333 0 0 1 14.570667-6.037334l64.725333 64.725334a8.533333 8.533333 0 0 1 0 12.074666l-64.725333 64.725334a8.533333 8.533333 0 0 1-14.570667-6.037334z" fill="#3654FD" p-id="1426"></path></svg>