<?xml version="1.0" standalone="no"?><!DOCTYPE svg PUBLIC "-//W3C//DTD SVG 1.1//EN" "http://www.w3.org/Graphics/SVG/1.1/DTD/svg11.dtd"><svg t="1587779926737" class="icon" viewBox="0 0 1024 1024" version="1.1" xmlns="http://www.w3.org/2000/svg" p-id="1560" xmlns:xlink="http://www.w3.org/1999/xlink" width="200" height="200"><defs><style type="text/css"></style></defs><path d="M170.666667 320m234.666666 0l234.666667 0q234.666667 0 234.666667 234.666667l0 0q0 234.666667-234.666667 234.666666l-234.666667 0q-234.666667 0-234.666666-234.666666l0 0q0-234.666667 234.666666-234.666667Z" fill="#FFC500" opacity=".3" p-id="1561"></path><path d="M640 234.666667c153.173333 0 277.333333 124.16 277.333333 277.333333s-124.16 277.333333-277.333333 277.333333a21.333333 21.333333 0 0 1 0-42.666666c129.6 0 234.666667-105.066667 234.666667-234.666667 0-126.442667-100.010667-229.546667-225.237334-234.474667L640 277.333333H384c-129.6 0-234.666667 105.066667-234.666667 234.666667 0 126.442667 100.010667 229.546667 225.237334 234.474667L384 746.666667h42.666667v-43.392a8.533333 8.533333 0 0 1 1.130666-4.266667l1.365334-1.770667a8.533333 8.533333 0 0 1 9.856-1.6l2.218666 1.6 64.725334 64.725334a8.533333 8.533333 0 0 1 1.6 9.856l-1.6 2.218666-64.725334 64.725334a8.533333 8.533333 0 0 1-14.272-3.754667L426.666667 832.725333V789.333333h-42.666667c-153.173333 0-277.333333-124.16-277.333333-277.333333 0-149.845333 118.826667-271.914667 267.392-277.162667L384 234.666667h256z" fill="#3654FD" p-id="1562"></path><path d="M554.666667 640V384h-36.117334L469.333333 427.136v40.64l49.216-43.861333V640z" fill="#3654FD" p-id="1563"></path></svg>